<?xml version="1.0" encoding="UTF-8"?>
<svg height="128px" viewBox="0 0 128 128" width="128px" xmlns="http://www.w3.org/2000/svg" xmlns:xlink="http://www.w3.org/1999/xlink">
    <clipPath id="a">
        <path d="m 12 12 h 104 v 104 h -104 z m 0 0"/>
    </clipPath>
    <clipPath id="b">
        <path d="m 20.417969 12.496094 h 87.164062 c 4.375 0 7.921875 3.546875 7.921875 7.921875 v 87.164062 c 0 4.375 -3.546875 7.921875 -7.921875 7.921875 h -87.164062 c -4.375 0 -7.921875 -3.546875 -7.921875 -7.921875 v -87.164062 c 0 -4.375 3.546875 -7.921875 7.921875 -7.921875 z m 0 0"/>
    </clipPath>
    <g clip-path="url(#a)">
        <g clip-path="url(#b)">
            <path d="m 12.496094 12.496094 h 48.832031 v 48.808594 h -48.832031 z m 54.175781 0 h 48.832031 v 48.808594 h -48.832031 z m -54.175781 54.175781 h 48.832031 v 48.832031 h -48.832031 z m 54.175781 0 h 48.832031 v 48.832031 h -48.832031" fill="#1c71d8"/>
        </g>
    </g>
</svg>
