<?xml version="1.0" encoding="UTF-8"?>
<svg height="128px" viewBox="0 0 128 128" width="128px" xmlns="http://www.w3.org/2000/svg" xmlns:xlink="http://www.w3.org/1999/xlink">
    <clipPath id="a">
        <path d="m 12 12 h 104 v 104 h -104 z m 0 0"/>
    </clipPath>
    <clipPath id="b">
        <path d="m 20 12 h 88 c 4.417969 0 8 3.582031 8 8 v 88 c 0 4.417969 -3.582031 8 -8 8 h -88 c -4.417969 0 -8 -3.582031 -8 -8 v -88 c 0 -4.417969 3.582031 -8 8 -8 z m 0 0"/>
    </clipPath>
    <g clip-path="url(#a)">
        <g clip-path="url(#b)">
            <path d="m 11.5 11.5 h 49.773438 v 49.753906 h -49.773438 z m 55.226562 0 h 49.773438 v 49.753906 h -49.773438 z m -55.226562 55.226562 h 49.773438 v 49.777344 h -49.773438 z m 55.226562 0 h 49.773438 v 49.777344 h -49.773438" fill="#1c71d8"/>
        </g>
    </g>
</svg>
